<svg width="19" height="19" viewBox="0 0 19 19" fill="none" xmlns="http://www.w3.org/2000/svg">
<path fill-rule="evenodd" clip-rule="evenodd" d="M16.9005 1.4292C16.3579 0.886757 15.6221 0.582031 14.8548 0.582031C14.0876 0.582031 13.3518 0.886757 12.8091 1.4292L12.1273 2.11205L16.9015 6.88625L17.5824 6.20436C17.8511 5.93567 18.0643 5.61668 18.2097 5.2656C18.3552 4.91451 18.43 4.53822 18.43 4.15821C18.43 3.77819 18.3552 3.4019 18.2097 3.05082C18.0643 2.69973 17.8511 2.38074 17.5824 2.11205L16.9005 1.4292ZM15.5367 8.25003L10.7625 3.47583L1.99535 12.244C1.80349 12.4359 1.66947 12.6778 1.60859 12.9422L0.616134 17.239C0.579154 17.3985 0.583396 17.5648 0.628459 17.7223C0.673522 17.8797 0.757923 18.0231 0.873708 18.1388C0.989494 18.2546 1.13285 18.339 1.29027 18.3841C1.4477 18.4291 1.614 18.4334 1.77352 18.3964L6.07126 17.4049C6.33534 17.3439 6.57696 17.2099 6.76858 17.0182L15.5367 8.25003Z" fill="#1E123B"/>
</svg>
