<svg width="16" height="16" viewBox="0 0 16 16" fill="none" xmlns="http://www.w3.org/2000/svg">
<path d="M15.0301 13.606C15.2339 13.8099 15.3484 14.0863 15.3484 14.3746C15.3484 14.6629 15.2339 14.9393 15.0301 15.1432C14.8262 15.347 14.5498 15.4615 14.2615 15.4615C13.9732 15.4615 13.6968 15.347 13.4929 15.1432L7.75213 9.40056L2.00952 15.1414C1.80569 15.3452 1.52922 15.4597 1.24095 15.4597C0.952679 15.4597 0.676215 15.3452 0.472376 15.1414C0.268538 14.9375 0.154022 14.6611 0.154022 14.3728C0.154022 14.0845 0.268538 13.808 0.472376 13.6042L6.21498 7.86341L0.474184 2.12081C0.270346 1.91697 0.155831 1.64051 0.155831 1.35224C0.155831 1.06396 0.270346 0.787501 0.474184 0.583662C0.678023 0.379824 0.954487 0.265308 1.24276 0.265308C1.53103 0.265308 1.80749 0.379824 2.01133 0.583662L7.75213 6.32626L13.4947 0.582758C13.6986 0.378919 13.975 0.264404 14.2633 0.264404C14.5516 0.264404 14.828 0.378919 15.0319 0.582758C15.2357 0.786596 15.3502 1.06306 15.3502 1.35133C15.3502 1.6396 15.2357 1.91607 15.0319 2.11991L9.28927 7.86341L15.0301 13.606Z" fill="#1E123B"/>
</svg>
